<svg xmlns="http://www.w3.org/2000/svg" xmlns:xlink="http://www.w3.org/1999/xlink" version="1.1" width="1000" height="1000" viewBox="0 0 1000 1000" xml:space="preserve">
<desc>Created with Fabric.js 3.5.0</desc>
<defs>
</defs>
<rect x="0" y="0" width="100%" height="100%" fill="#ffffff"/>
<g transform="matrix(1 0 0 1 500 500)" id="791536">
<g style="" vector-effect="non-scaling-stroke">
		<g transform="matrix(8.2286 0 0 8.2286 -1.3696 4.1148)" id="133129">
<rect style="stroke: none; stroke-width: 1; stroke-dasharray: none; stroke-linecap: butt; stroke-dashoffset: 0; stroke-linejoin: miter; stroke-miterlimit: 4; is-custom-font: none; font-file-url: none; fill: rgb(235,240,243); fill-rule: nonzero; opacity: 1;" x="-17.3335" y="-17" rx="4" ry="4" width="34.667" height="34"/>
</g>
		<g transform="matrix(8.2286 0 0 8.2286 -1.3711 4.1145)" id="932998">
<path style="stroke: rgb(71,178,228); stroke-width: 1.333; stroke-dasharray: none; stroke-linecap: round; stroke-dashoffset: 0; stroke-linejoin: round; stroke-miterlimit: 4; is-custom-font: none; font-file-url: none; fill: none; fill-rule: nonzero; opacity: 1;" transform=" translate(-17.3333, -17)" d="M 12 13 H 22.6667 M 12 15.6667 H 22.6667 M 12 18.3333 H 22.6667 M 12 21 H 22.6667" stroke-linecap="round"/>
</g>
</g>
</g>
<g transform="matrix(1 0 0 1 500 500)" id="546854">
<g style="" vector-effect="non-scaling-stroke">
		<g transform="matrix(8.2286 0 0 8.2286 -1.3696 4.1148)" id="136466">
<rect style="stroke: none; stroke-width: 1; stroke-dasharray: none; stroke-linecap: butt; stroke-dashoffset: 0; stroke-linejoin: miter; stroke-miterlimit: 4; is-custom-font: none; font-file-url: none; fill: rgb(235,240,243); fill-rule: nonzero; opacity: 1;" x="-17.3335" y="-17" rx="4" ry="4" width="34.667" height="34"/>
</g>
		<g transform="matrix(8.2286 0 0 8.2286 -1.3711 4.1145)" id="982979">
<path style="stroke: rgb(71,178,228); stroke-width: 1.333; stroke-dasharray: none; stroke-linecap: round; stroke-dashoffset: 0; stroke-linejoin: round; stroke-miterlimit: 4; is-custom-font: none; font-file-url: none; fill: none; fill-rule: nonzero; opacity: 1;" transform=" translate(-17.3333, -17)" d="M 12 13 H 22.6667 M 12 15.6667 H 22.6667 M 12 18.3333 H 22.6667 M 12 21 H 22.6667" stroke-linecap="round"/>
</g>
</g>
</g>
<g transform="matrix(1 0 0 1 500 500)" id="988161">
<g style="" vector-effect="non-scaling-stroke">
		<g transform="matrix(8.2286 0 0 8.2286 -1.3696 4.1148)" id="870320">
<rect style="stroke: none; stroke-width: 1; stroke-dasharray: none; stroke-linecap: butt; stroke-dashoffset: 0; stroke-linejoin: miter; stroke-miterlimit: 4; is-custom-font: none; font-file-url: none; fill: rgb(235,240,243); fill-rule: nonzero; opacity: 1;" x="-17.3335" y="-17" rx="4" ry="4" width="34.667" height="34"/>
</g>
		<g transform="matrix(8.2286 0 0 8.2286 -1.3711 4.1145)" id="878118">
<path style="stroke: rgb(71,178,228); stroke-width: 1.333; stroke-dasharray: none; stroke-linecap: round; stroke-dashoffset: 0; stroke-linejoin: round; stroke-miterlimit: 4; is-custom-font: none; font-file-url: none; fill: none; fill-rule: nonzero; opacity: 1;" transform=" translate(-17.3333, -17)" d="M 12 13 H 22.6667 M 12 15.6667 H 22.6667 M 12 18.3333 H 22.6667 M 12 21 H 22.6667" stroke-linecap="round"/>
</g>
</g>
</g>
<g transform="matrix(1 0 0 1 500 500)" id="631619">
<g style="" vector-effect="non-scaling-stroke">
		<g transform="matrix(8.2286 0 0 8.2286 -1.3696 4.1148)" id="326474">
<rect style="stroke: none; stroke-width: 1; stroke-dasharray: none; stroke-linecap: butt; stroke-dashoffset: 0; stroke-linejoin: miter; stroke-miterlimit: 4; is-custom-font: none; font-file-url: none; fill: rgb(235,240,243); fill-rule: nonzero; opacity: 1;" x="-17.3335" y="-17" rx="4" ry="4" width="34.667" height="34"/>
</g>
		<g transform="matrix(8.2286 0 0 8.2286 -1.3711 4.1145)" id="179725">
<path style="stroke: rgb(71,178,228); stroke-width: 1.333; stroke-dasharray: none; stroke-linecap: round; stroke-dashoffset: 0; stroke-linejoin: round; stroke-miterlimit: 4; is-custom-font: none; font-file-url: none; fill: none; fill-rule: nonzero; opacity: 1;" transform=" translate(-17.3333, -17)" d="M 12 13 H 22.6667 M 12 15.6667 H 22.6667 M 12 18.3333 H 22.6667 M 12 21 H 22.6667" stroke-linecap="round"/>
</g>
</g>
</g>
<g transform="matrix(26.8292 0 0 26.8292 485.215 490.6994)" id="272702">
<rect style="stroke: none; stroke-width: 0; stroke-dasharray: none; stroke-linecap: butt; stroke-dashoffset: 0; stroke-linejoin: miter; stroke-miterlimit: 4; is-custom-font: none; font-file-url: none; fill: rgb(235,240,243); fill-rule: nonzero; opacity: 1;" x="-17.3335" y="-17" rx="4" ry="4" width="34.667" height="34"/>
</g>
<g transform="matrix(3.0692 0 0 2.9855 500.0005 500.0011)" id="831515">
<g style="" vector-effect="non-scaling-stroke">
		<g transform="matrix(1 0 0 1 0 0)">
<rect style="stroke: none; stroke-width: 1; stroke-dasharray: none; stroke-linecap: butt; stroke-dashoffset: 0; stroke-linejoin: miter; stroke-miterlimit: 4; is-custom-font: none; font-file-url: none; fill: none; fill-rule: nonzero; opacity: 1;" x="-128" y="-128" rx="0" ry="0" width="256" height="256"/>
</g>
		<g transform="matrix(1 0 0 1 0 0)">
<path style="stroke: rgb(71,178,228); stroke-width: 8; stroke-dasharray: none; stroke-linecap: round; stroke-dashoffset: 0; stroke-linejoin: round; stroke-miterlimit: 4; is-custom-font: none; font-file-url: none; fill: none; fill-rule: nonzero; opacity: 1;" transform=" translate(-128, -128)" d="M 32 56 H 224 a 0 0 0 0 1 0 0 V 192 a 8 8 0 0 1 -8 8 H 40 a 8 8 0 0 1 -8 -8 V 56 A 0 0 0 0 1 32 56 Z" stroke-linecap="round"/>
</g>
		<g transform="matrix(1 0 0 1 0 -24)">
<line style="stroke: rgb(71,178,228); stroke-width: 8; stroke-dasharray: none; stroke-linecap: round; stroke-dashoffset: 0; stroke-linejoin: round; stroke-miterlimit: 4; is-custom-font: none; font-file-url: none; fill: none; fill-rule: nonzero; opacity: 1;" x1="-96" y1="0" x2="96" y2="0"/>
</g>
		<g transform="matrix(1 0 0 1 0 24)">
<line style="stroke: rgb(71,178,228); stroke-width: 8; stroke-dasharray: none; stroke-linecap: round; stroke-dashoffset: 0; stroke-linejoin: round; stroke-miterlimit: 4; is-custom-font: none; font-file-url: none; fill: none; fill-rule: nonzero; opacity: 1;" x1="-96" y1="0" x2="96" y2="0"/>
</g>
		<g transform="matrix(1 0 0 1 -40 24)">
<line style="stroke: rgb(71,178,228); stroke-width: 8; stroke-dasharray: none; stroke-linecap: round; stroke-dashoffset: 0; stroke-linejoin: round; stroke-miterlimit: 4; is-custom-font: none; font-file-url: none; fill: none; fill-rule: nonzero; opacity: 1;" x1="0" y1="-48" x2="0" y2="48"/>
</g>
</g>
</g>
</svg>