<svg xmlns="http://www.w3.org/2000/svg" height="40" viewBox="0 0 40 40">
  <g id="Group_25" data-name="Group 25" transform="translate(-598.5 -760.5)">
    <circle id="Oval_Copy_4" data-name="Oval Copy 4" cx="19.5" cy="19.5" r="19.5" transform="translate(599 761)" fill="#f8f8f8" stroke="#efefef" stroke-miterlimit="10" stroke-width="1"/>
    <g id="road" transform="translate(608 771)">
      <path id="Shape" d="M9.079,15.147H1.22A1.19,1.19,0,0,1,.21,14.59a1.292,1.292,0,0,1-.1-1.231L5.693.736A1.22,1.22,0,0,1,6.8,0h3.9l-.1.914a.314.314,0,0,0,.078.242.324.324,0,0,0,.239.106h1.165a.324.324,0,0,0,.239-.106A.314.314,0,0,0,12.4.914L12.3,0h3.9a1.22,1.22,0,0,1,1.107.736l5.582,12.623a1.292,1.292,0,0,1-.1,1.231,1.19,1.19,0,0,1-1.01.556H13.92l-.411-3.853a.634.634,0,0,0-.635-.564H10.127a.634.634,0,0,0-.635.564l-.412,3.853ZM10.6,6.311a.635.635,0,0,0-.635.565l-.2,1.893a.628.628,0,0,0,.158.486.643.643,0,0,0,.478.212H12.6a.643.643,0,0,0,.478-.212.629.629,0,0,0,.158-.486l-.2-1.893a.635.635,0,0,0-.635-.565Zm.118-3.786a.318.318,0,0,0-.319.283l-.183,1.719a.47.47,0,0,0,.117.364.484.484,0,0,0,.359.159H12.31a.477.477,0,0,0,.357-.159.466.466,0,0,0,.119-.364L12.6,2.807a.317.317,0,0,0-.318-.283Z"/>
    </g>
  </g>
</svg>
