<svg xmlns="http://www.w3.org/2000/svg" height="40" viewBox="0 0 40 40">
  <g id="Group_21" data-name="Group 21" transform="translate(-598.5 -505.5)">
    <path id="Oval" d="M19.5,0A19.5,19.5,0,1,1,0,19.5,19.5,19.5,0,0,1,19.5,0Z" transform="translate(599 506)" fill="#f8f8f8" stroke="#efefef" stroke-width="1"/>
    <g id="award" transform="translate(609 513)">
      <path id="Shape" d="M12.509,23.806a.75.75,0,0,1-.7-.463L9.373,17.41a3.386,3.386,0,0,0,4.075-.548c.041-.04.075-.075.1-.105l.023-.023c.2-.2.2-.2.651-.319l.033-.009.019,0,.348-.09a3.365,3.365,0,0,0,1.192-.62l2.127,5.172a.728.728,0,0,1-.069.692.748.748,0,0,1-.624.333h-.03l-2.47-.093-1.7,1.779A.742.742,0,0,1,12.509,23.806Zm-7.018,0a.742.742,0,0,1-.543-.232l-1.7-1.779-2.47.093H.75a.75.75,0,0,1-.624-.332.73.73,0,0,1-.069-.693l2.127-5.172a3.345,3.345,0,0,0,1.192.62l.273.071.04.01.085.022c.454.114.454.114.654.321l.021.021.019.019c.026.026.054.056.086.087a3.385,3.385,0,0,0,4.074.548L6.188,23.343A.75.75,0,0,1,5.491,23.806Zm5.5-7.438a1.877,1.877,0,0,1-1-.288,1.874,1.874,0,0,0-1.993,0,1.873,1.873,0,0,1-2.332-.27,2.359,2.359,0,0,0-1.5-.853L3.947,14.9l-.093-.025A1.9,1.9,0,0,1,2.52,13.525l-.029-.108v-.006l-.032-.12v-.006a2.548,2.548,0,0,0-.978-1.711l-.1-.1L1.3,11.4a1.927,1.927,0,0,1-.489-1.84L.838,9.47c.014-.052.027-.1.04-.149a2.549,2.549,0,0,0,0-1.976l0-.013C.857,7.26.836,7.184.815,7.1A1.924,1.924,0,0,1,1.3,5.261L1.4,5.166l.081-.082a2.544,2.544,0,0,0,.978-1.71c.011-.044.023-.091.036-.139l.027-.1A1.9,1.9,0,0,1,3.854,1.787l.161-.043.078-.021A2.505,2.505,0,0,0,5.787.734L5.9.618l.059-.06A1.874,1.874,0,0,1,7.783.065L8.023.13l.017,0A3.845,3.845,0,0,0,9,.33a3.847,3.847,0,0,0,.963-.2l.014,0,.238-.065A1.864,1.864,0,0,1,10.7,0a1.894,1.894,0,0,1,1.335.558l.175.176a2.505,2.505,0,0,0,1.695.988l.1.026.139.037a1.9,1.9,0,0,1,1.335,1.347l.027.1c.013.049.025.1.036.14a2.544,2.544,0,0,0,.978,1.71l.081.081.094.095a1.925,1.925,0,0,1,.488,1.84l-.027.1c-.013.048-.025.093-.036.136a2.564,2.564,0,0,0,0,1.978l0,.005.05.188.013.048A1.923,1.923,0,0,1,16.7,11.4l-.075.076-.1.1a2.548,2.548,0,0,0-.978,1.711c-.011.044-.023.091-.036.139l-.027.1a1.9,1.9,0,0,1-1.335,1.347l-.292.077-.07.018a2.287,2.287,0,0,0-1.455.842A1.869,1.869,0,0,1,10.993,16.367ZM9,3.717a4.465,4.465,0,1,0,4.422,4.465A4.448,4.448,0,0,0,9,3.717Z"/>
    </g>
  </g>
</svg>
