<svg xmlns="http://www.w3.org/2000/svg" height="40" viewBox="0 0 40 40">
  <g id="Group_23" data-name="Group 23" transform="translate(-598.5 -635.5)">
    <circle id="Oval_Copy_2" data-name="Oval Copy 2" cx="19.5" cy="19.5" r="19.5" transform="translate(599 636)" fill="#f8f8f8" stroke="#efefef" stroke-miterlimit="10" stroke-width="1"/>
    <g id="headset" transform="translate(607 643)">
      <path id="Shape" d="M18.121,22H10.312a2.062,2.062,0,0,1,0-4.125h1.375a2.065,2.065,0,0,1,2.063,2.063h4.37a1.819,1.819,0,0,0,1.817-1.817v-.009c0-.718,0-7.013-.005-7.112h.006A8.938,8.938,0,0,0,2.063,11v.688a.688.688,0,0,1-.688.688H.688A.688.688,0,0,1,0,11.687V11A11.585,11.585,0,0,1,3.273,3.29a10.721,10.721,0,0,1,15.455,0A11.583,11.583,0,0,1,22,11v7.121A3.883,3.883,0,0,1,18.121,22Zm-2.308-6.874h-.687A1.377,1.377,0,0,1,13.75,13.75V8.938a1.377,1.377,0,0,1,1.375-1.375h.687a2.753,2.753,0,0,1,2.75,2.749v2.063A2.754,2.754,0,0,1,15.812,15.125Zm-8.937,0H6.188a2.754,2.754,0,0,1-2.75-2.75V10.312a2.753,2.753,0,0,1,2.75-2.749h.688A1.377,1.377,0,0,1,8.25,8.938V13.75A1.377,1.377,0,0,1,6.875,15.125Z"/>
    </g>
  </g>
</svg>
