<svg xmlns="http://www.w3.org/2000/svg" height="40" viewBox="0 0 40 40">
  <g id="Group_22" data-name="Group 22" transform="translate(-598.5 -573.5)">
    <circle id="Oval_Copy" data-name="Oval Copy" cx="19.5" cy="19.5" r="19.5" transform="translate(599 574)" fill="#f8f8f8" stroke="#efefef" stroke-miterlimit="10" stroke-width="1"/>
    <g id="question-circle" transform="translate(607 582)">
      <path id="Shape" d="M11.5,23a11.5,11.5,0,1,1,8.132-3.368A11.424,11.424,0,0,1,11.5,23Zm0-7.7a2.133,2.133,0,1,0,2.133,2.133A2.135,2.135,0,0,0,11.5,15.3Zm.068-8.329c1,0,2.119.654,2.119,1.529,0,.693-.573,1.05-1.508,1.575l-.081.045c-1.093.612-2.453,1.374-2.453,3.232v.185a.557.557,0,0,0,.556.556h2.6a.557.557,0,0,0,.557-.556v-.062c0-.5.546-.814,1.237-1.212,1.106-.638,2.621-1.512,2.621-3.734,0-2.707-2.853-4.73-5.4-4.73A5.987,5.987,0,0,0,6.4,6.759a.556.556,0,0,0,.126.754l1.608,1.22a.556.556,0,0,0,.773-.1C9.723,7.605,10.285,6.974,11.569,6.974Z"/>
    </g>
  </g>
</svg>
