<svg xmlns="http://www.w3.org/2000/svg" height="40" viewBox="0 0 40 40">
  <g id="Group_24" data-name="Group 24" transform="translate(-598.5 -697.5)">
    <circle id="Oval_Copy_3" data-name="Oval Copy 3" cx="19.5" cy="19.5" r="19.5" transform="translate(599 698)" fill="#f8f8f8" stroke="#efefef" stroke-miterlimit="10" stroke-width="1"/>
    <g id="user-check" transform="translate(609 707)">
      <path id="Shape" d="M15,19.333H1.8A1.808,1.808,0,0,1,0,17.521V15.95a5.063,5.063,0,0,1,5.04-5.075h.626a6.481,6.481,0,0,0,5.467,0h.626A5.063,5.063,0,0,1,16.8,15.95v1.571A1.808,1.808,0,0,1,15,19.333Zm3.255-7.248a.437.437,0,0,1-.315-.133L14.876,8.843a.451.451,0,0,1,0-.635l1.054-1.053a.446.446,0,0,1,.315-.13.437.437,0,0,1,.315.133L18.27,8.888,22.2,4.962a.444.444,0,0,1,.314-.13.438.438,0,0,1,.316.133l1.042,1.061a.455.455,0,0,1,0,.635l-5.3,5.294A.446.446,0,0,1,18.255,12.085ZM8.4,9.667a4.834,4.834,0,1,1,4.8-4.834A4.822,4.822,0,0,1,8.4,9.667Z"/>
    </g>
  </g>
</svg>
